<?xml version="1.0" standalone="no"?>
<!DOCTYPE svg PUBLIC "-//W3C//DTD SVG 1.1//EN" "http://www.w3.org/Graphics/SVG/1.1/DTD/svg11.dtd" >
<svg xmlns="http://www.w3.org/2000/svg">
<metadata>
This is a custom SVG webfont generated by Font Squirrel.
Copyright   : Copyright c 2001 2002 MondayRec Media
</metadata>
<defs>
<font id="FinderRegular" horiz-adv-x="699" >
<font-face units-per-em="2048" ascent="1638" descent="-410" />
<missing-glyph horiz-adv-x="512" />
<glyph unicode=" "  horiz-adv-x="512" />
<glyph unicode="&#x09;" horiz-adv-x="512" />
<glyph unicode="&#xa0;" horiz-adv-x="512" />
<glyph unicode="!" horiz-adv-x="250" d="M0 50q0 -50 50 -50h50q50 0 50 50v50q0 50 -50 50h-50q-50 0 -50 -50v-50zM0 350q0 -50 50 -50h50q50 0 50 50v550q0 50 -50 50h-50q-50 0 -50 -50v-550z" />
<glyph unicode="&#x22;" horiz-adv-x="450" d="M0 625q0 -25 50 -25q100 0 100 200v50q0 50 -50 50h-50q-50 0 -50 -50v-225zM200 625q0 -25 50 -25q100 0 100 200v50q0 50 -50 50h-50q-50 0 -50 -50v-225z" />
<glyph unicode="&#x26;" horiz-adv-x="1000" d="M150 250q0 125 50 150q-50 0 -50 125v325q0 50 50 50h220q50 0 50 -50q-131 -208 -131 -310q0 -70 61 -90h50q300 0 300 -150v-150q0 -150 -300 -150t-300 250zM300 250q0 -100 150 -100t150 50v50q0 50 -150 50h-100q-50 0 -50 -50z" />
<glyph unicode="'" horiz-adv-x="250" d="M0 625q0 -25 50 -25q100 0 100 200v50q0 50 -50 50h-50q-50 0 -50 -50v-225z" />
<glyph unicode="(" horiz-adv-x="350" d="M90 -125q-45 250 -45 500t45 500q10 75 60 75h50q50 0 50 -50q-50 -262 -50 -525t50 -525q0 -50 -50 -50h-50q-50 0 -60 75z" />
<glyph unicode=")" horiz-adv-x="350" d="M45 -150q0 -50 50 -50h50q50 0 60 75q45 250 45 500t-45 500q-10 75 -60 75h-50q-50 0 -50 -50q50 -262 50 -525t-50 -525z" />
<glyph unicode="*" horiz-adv-x="675" d="M6 766l8 49q7 42 45 42q5 0 13 -1l223 -40q13 -30 13 -57q0 -49 -40 -90l-222 39q-42 8 -42 44zM80 574l129 185q89 -1 123 -85l-129 -186q-17 -24 -38 -24q-15 0 -32 12l-41 29q-24 17 -24 38q0 14 12 31zM215 725v225q0 50 50 50h50q50 0 50 -50v-226q-37 -24 -74 -24z M255 673q33 84 123 87l129 -186q12 -17 12 -31q-1 -21 -25 -38l-40 -29q-17 -12 -32 -11q-21 -1 -38 23zM288 817l222 39q8 1 14 1q38 1 44 -41l8 -50q1 -8 1 -14q1 -38 -41 -44l-223 -39q-38 41 -38 89q0 28 13 59z" />
<glyph unicode="+" horiz-adv-x="700" d="M0 350v50q0 50 50 50h500q50 0 50 -50v-50q0 -50 -50 -50h-500q-50 0 -50 50zM224 125v500q0 50 50 50h50q50 0 50 -50v-500q0 -50 -50 -50h-50q-50 0 -50 50z" />
<glyph unicode="," horiz-adv-x="249" d="M0 100v-225q0 -25 50 -25q100 0 100 200v50q0 50 -50 50h-50q-50 0 -50 -50z" />
<glyph unicode="-" horiz-adv-x="700" d="M0 350v50q0 50 50 50h500q50 0 50 -50v-50q0 -50 -50 -50h-500q-50 0 -50 50z" />
<glyph unicode="." horiz-adv-x="249" d="M0 50q0 -50 50 -50h50q50 0 50 50v50q0 50 -50 50h-50q-50 0 -50 -50v-50z" />
<glyph unicode="/" horiz-adv-x="600" d="M4 -64q-5 -12 -5 -23q0 -29 35 -42l47 -17q12 -5 23 -5q29 0 41 35l376 1034q5 12 5 22q0 29 -35 42l-47 17q-12 5 -23 5q-29 0 -41 -35z" />
<glyph unicode="0" horiz-adv-x="700" d="M0 150q0 -150 300 -150t300 150v650q0 150 -300 150t-300 -150v-650zM150 200v550q0 45 150 50q150 0 150 -50v-550q0 -50 -150 -50t-150 50z" />
<glyph unicode="1" horiz-adv-x="400" d="M0 850q0 100 200 100h50q50 0 50 -50v-50q0 -50 -150 -100q0 50 -50 50h-76q-24 0 -24 50zM150 50v850q0 50 50 50h50q50 0 50 -50v-850q0 -50 -50 -50h-50q-50 0 -50 50z" />
<glyph unicode="2" horiz-adv-x="700" d="M0 100v120q0 105 225 267.5t225 212.5q0 90 -150 100h-250q-50 0 -50 50v50q0 50 50 50h250q300 0 300 -250v-25q0 -100 -225 -262.5t-225 -212.5t50 -50h350q50 0 50 -50v-50q0 -50 -50 -50h-450q-100 0 -100 100z" />
<glyph unicode="3" horiz-adv-x="700" d="M0 50q0 -50 50 -50h250q300 0 300 150v650q0 150 -300 150h-250q-50 0 -50 -50v-50q0 -50 50 -50h250q150 0 150 -50v-150q0 -50 -50 -50h-100q-50 0 -50 -50v-50q0 -50 50 -50h100q50 0 50 -50v-150q0 -50 -150 -50h-250q-50 0 -50 -50v-50z" />
<glyph unicode="4" horiz-adv-x="700" d="M0 300q0 -150 300 -150h100q50 0 50 -100q0 -50 50 -50h50q50 0 50 50v850q0 50 -50 50h-50q-50 0 -50 -50v-550q0 -50 -50 -50h-100q-150 0 -150 50v550q0 50 -55 50h-45q-50 0 -50 -51v-599z" />
<glyph unicode="5" horiz-adv-x="700" d="M0 50q0 -50 50 -50h250q300 0 300 250v25q0 100 -225 262.5t-225 212.5t50 50h350q50 0 50 50v50q0 50 -50 50h-450q-100 0 -100 -100v-120q0 -105 225 -267.5t225 -212.5q0 -90 -150 -100h-250q-50 0 -50 -50v-50z" />
<glyph unicode="6" horiz-adv-x="700" d="M0 150q0 -150 300 -150t300 150v250q0 150 -300 150h-100q-50 0 -50 50v150q0 50 150 50t150 -50t50 -50h50q50 0 50 50v50q0 150 -300 150t-300 -150v-650zM150 200v150q0 50 50 50h100q150 0 150 -50v-150q0 -50 -150 -50t-150 50z" />
<glyph unicode="7" horiz-adv-x="700" d="M0 850q0 100 200 100h350q50 0 50 -50v-50q0 -50 -150 -100q0 50 -50 50h-376q-24 0 -24 50zM300 450v50q0 50 50 50h85q50 0 50 -50v-50q0 -50 -50 -50h-85q-50 0 -50 50zM450 50v850q0 50 50 50h50q50 0 50 -50v-850q0 -50 -50 -50h-50q-50 0 -50 50z" />
<glyph unicode="8" horiz-adv-x="701" d="M0 150q0 -150 300 -150t300 150v200q0 125 -75 125q75 0 75 125v200q0 150 -300 150t-300 -150v-200q0 -125 75 -125l275 -75q100 0 100 -75v-100q0 -75 -100 -75h-100q-100 0 -100 75v100q0 75 100 75h200l-350 75q-100 0 -100 -125v-200zM150 625v100q0 75 100 75h100 q100 0 100 -75v-100q0 -75 -100 -75h-100q-100 0 -100 75z" />
<glyph unicode="9" horiz-adv-x="700" d="M0 150q0 -150 300 -150t300 150v650q0 150 -300 150t-300 -150v-250q0 -150 300 -150h100q50 0 50 -50v-150q0 -50 -150 -50t-150 50t-50 50h-50q-50 0 -50 -50v-50zM150 600v150q0 50 150 50t150 -50v-150q0 -50 -50 -50h-100q-150 0 -150 50z" />
<glyph unicode=":" horiz-adv-x="249" d="M0 50q0 -50 50 -50h50q50 0 50 50v50q0 50 -50 50h-50q-50 0 -50 -50v-50zM0 350q0 -50 50 -50h50q50 0 50 50v50q0 50 -50 50h-50q-50 0 -50 -50v-50z" />
<glyph unicode=";" horiz-adv-x="249" d="M0 100v-225q0 -25 50 -25q100 0 100 200v50q0 50 -50 50h-50q-50 0 -50 -50zM0 350q0 -50 50 -50h50q50 0 50 50v50q0 50 -50 50h-50q-50 0 -50 -50v-50z" />
<glyph unicode="&#x3c;" horiz-adv-x="600" d="M18 338q-18 18 -18 36q0 16 18 34l354 354q18 18 35 18t35 -18l36 -35q18 -18 18 -35q0 -18 -18 -36l-354 -354q-18 -18 -36 -17l-35 17zM20 338q-18 18 -18 35.5t18 35.5l35 35q18 18 35.5 18t35.5 -18l353 -354q18 -18 18 -35t-18 -35l-35 -36q-18 -18 -36 -18 q-17 0 -35 18z" />
<glyph unicode="=" horiz-adv-x="700" d="M0 250v50q0 50 50 50h500q50 0 50 -50v-50q0 -50 -50 -50h-500q-50 0 -50 50zM0 450v50q0 50 50 50h500q50 0 50 -50v-50q0 -50 -50 -50h-500q-50 0 -50 50z" />
<glyph unicode="&#x3e;" horiz-adv-x="600" d="M17 20l35 -36q18 -18 36 -18q17 0 35 18l353 354q18 18 18 35.5t-18 35.5l-35 35q-18 18 -35.5 18t-35.5 -18l-353 -354q-18 -18 -18 -35t18 -35zM18 727q-18 -18 -18 -35q0 -18 18 -36l354 -354q18 -18 36 -17l35 17l35 36q18 18 18 36q0 16 -18 34l-354 354 q-18 18 -35 18t-35 -18z" />
<glyph unicode="?" horiz-adv-x="764" d="M0 350v150q0 150 300 150q150 0 150 50v50q0 50 -150 50t-150 -50t-50 -50h-50q-50 0 -50 50v50q0 150 300 150t300 -150v-150q0 -150 -300 -150q-150 0 -150 -50v-50q0 -50 150 -50t150 50t50 50h50q50 0 50 -50v-50q0 -150 -300 -150t-300 150zM225 50q0 -50 50 -50h50 q50 0 50 50v50q0 50 -50 50h-50q-50 0 -50 -50v-50z" />
<glyph unicode="@" horiz-adv-x="1299" d="M-100 375q0 625 550 625t550 -450q0 -550 -300 -550v150q150 0 150 400q0 300 -400 300t-400 -475t400 -475h250q50 0 50 -50v-50q0 -50 -50 -50h-250q-550 0 -550 625zM150 150v150q0 150 300 150h100q50 0 50 50v50q0 50 -100 50h-250q-50 0 -50 50v50q0 50 50 50h200 q300 0 300 -150v-550q0 -50 -50 -50h-250q-300 0 -300 150zM300 200q0 -50 150 -50h100q50 0 50 50v50q0 50 -50 50h-100q-150 0 -150 -50v-50z" />
<glyph unicode="A" d="M0 50v400q0 300 150 300h300q150 0 150 -300v-400q0 -50 -50 -50h-50q-50 0 -50 50v200q0 50 -50 50h-200q-50 0 -50 -50v-200q0 -50 -50 -50h-50q-50 0 -50 50zM150 450h300q0 150 -50 150h-200q-50 0 -50 -150z" />
<glyph unicode="B" d="M0 50q0 -50 50 -50h250q300 0 300 150v450q0 150 -300 150h-250q-50 0 -50 -50v-650zM150 200v50q0 50 50 50h200q50 0 50 -50v-50q0 -50 -150 -50h-100q-50 0 -50 50zM150 500v50q0 50 50 50h100q150 0 150 -50v-50q0 -50 -50 -50h-200q-50 0 -50 50z" />
<glyph unicode="C" d="M0 150v450q0 150 300 150h250q50 0 50 -50v-50q0 -50 -50 -50h-250q-150 0 -150 -50v-350q0 -50 150 -50h250q50 0 50 -50v-50q0 -50 -50 -50h-250q-300 0 -300 150z" />
<glyph unicode="D" d="M0 50q0 -50 50 -50h250q300 0 300 150v450q0 150 -300 150h-250q-50 0 -50 -50v-650zM150 200v345q0 50 50 50h100q150 0 150 -50v-345q0 -50 -150 -50h-100q-50 0 -50 50z" />
<glyph unicode="E" d="M0 150v450q0 150 300 150h250q50 0 50 -50v-50q0 -50 -50 -50h-250q-150 0 -150 -50v-50q0 -50 50 -50h100q50 0 50 -50v-50q0 -50 -50 -50h-100q-50 0 -50 -50v-50q0 -50 150 -50h250q50 0 50 -50v-50q0 -50 -50 -50h-250q-300 0 -300 150z" />
<glyph unicode="F" d="M0 50v550q0 150 300 150h250q50 0 50 -50v-50q0 -50 -50 -50h-250q-150 0 -150 -50v-50q0 -50 50 -50h100q50 0 50 -50v-50q0 -50 -50 -50h-100q-50 0 -50 -50v-200q0 -50 -50 -50h-50q-50 0 -50 50z" />
<glyph unicode="G" d="M0 150q0 -150 300 -150t300 150v250q0 50 -50 50h-200q-50 0 -50 -50v-50q0 -50 50 -50h50q50 0 50 -50v-50q0 -50 -150 -50t-150 50v350q0 50 150 50h250q50 0 50 50v50q0 50 -50 50h-250q-300 0 -300 -150v-450z" />
<glyph unicode="H" d="M0 50v650q0 50 50 50h50q50 0 50 -50v-200q0 -50 50 -50h200q50 0 50 50v200q0 50 50 50h50q50 0 50 -50v-650q0 -50 -50 -50h-50q-50 0 -50 50v200q0 50 -50 50h-200q-50 0 -50 -50v-200q0 -50 -50 -50h-50q-50 0 -50 50z" />
<glyph unicode="I" horiz-adv-x="249" d="M0 50v650q0 50 50 50h50q50 0 50 -50v-650q0 -50 -50 -50h-50q-50 0 -50 50z" />
<glyph unicode="J" horiz-adv-x="249" d="M0 -100v800q0 50 50 50h50q50 0 50 -50v-800q0 -50 -50 -50h-50q-50 0 -50 50z" />
<glyph unicode="K" d="M0 50v650q0 50 50 50h50q50 0 50 -50v-200q0 -50 50 -50h200q50 0 50 150v100q0 50 50 50h50q50 0 50 -50v-163q0 -138 -75 -162q75 -25 75 -163v-162q0 -50 -50 -50h-50q-50 0 -50 50v100q0 150 -50 150h-200q-50 0 -50 -50v-200q0 -50 -50 -50h-50q-50 0 -50 50z" />
<glyph unicode="L" horiz-adv-x="549" d="M0 150q0 -150 300 -150h100q50 0 50 50v50q0 50 -50 50h-100q-150 0 -150 50v500q0 50 -50 50h-50q-50 0 -50 -50v-550z" />
<glyph unicode="M" horiz-adv-x="1150" d="M0 50q0 -50 50 -50h50q50 0 50 50v500q0 50 50 50h200q50 0 50 -150v-400q0 -50 50 -50h50q50 0 50 50v400q0 150 50 150h200q50 0 50 -150v-400q0 -50 50 -50h50q50 0 50 50v400q0 300 -150 300h-300q-75 0 -75 -50q0 50 -150 50h-325q-50 0 -50 -50v-650z" />
<glyph unicode="N" d="M0 50v650q0 50 50 50h250q300 0 300 -150v-550q0 -50 -50 -50h-50q-50 0 -50 50v500q0 50 -150 50h-100q-50 0 -50 -50v-500q0 -50 -50 -50h-50q-50 0 -50 50z" />
<glyph unicode="O" d="M0 150q0 -150 300 -150t300 150v450q0 150 -300 150t-300 -150v-450zM150 200v350q0 45 150 50q150 0 150 -50v-350q0 -50 -150 -50t-150 50z" />
<glyph unicode="P" d="M0 50v650q0 50 50 50h250q300 0 300 -150v-150q0 -150 -300 -150h-100q-50 0 -50 -50v-200q0 -50 -50 -50h-50q-50 0 -50 50zM150 500q0 -50 50 -50h100q150 0 150 50v50q0 50 -150 50h-100q-50 0 -50 -50v-50z" />
<glyph unicode="Q" d="M0 150q0 -150 300 -150t300 150v450q0 150 -300 150t-300 -150v-450zM150 200v345q0 50 150 55q150 0 150 -50v-350q0 -50 -150 -50t-150 50zM225 -100q0 -50 50 -50h50q50 0 50 50v250q0 50 -50 50h-50q-50 0 -50 -50v-250z" />
<glyph unicode="R" d="M0 50v650q0 50 50 50h250q300 0 300 -250q0 -125 -50 -150q50 0 50 -300q0 -50 -50 -50h-50q-50 0 -50 50q0 250 -100 250h-150q-50 0 -50 -50v-200q0 -50 -50 -50h-50q-50 0 -50 50zM150 500q0 -50 50 -50h200q50 0 50 50q0 100 -150 100h-100q-50 0 -50 -50v-50z" />
<glyph unicode="S" horiz-adv-x="749" d="M0 150q0 -150 300 -150t300 150v150q0 150 -300 150q-150 0 -150 50v50q0 50 150 50t150 -50t50 -50h50q50 0 50 50v50q0 150 -300 150t-300 -150v-150q0 -150 300 -150q150 0 150 -50v-50q0 -50 -150 -50t-150 50t-50 50h-50q-50 0 -50 -50v-50z" />
<glyph unicode="T" horiz-adv-x="849" d="M0 650q0 -50 50 -50h200q50 0 50 -50v-500q0 -50 50 -50h50q50 0 50 50v500q0 50 50 50h200q50 0 50 50v50q0 50 -50 50h-650q-50 0 -50 -50v-50z" />
<glyph unicode="U" d="M0 150q0 -150 300 -150t300 150v550q0 50 -50 50h-50q-50 0 -50 -50v-500q0 -50 -150 -50t-150 50v500q0 50 -50 50h-50q-50 0 -50 -50v-550z" />
<glyph unicode="V" d="M0 350q0 -350 300 -350t300 350v350q0 50 -50 50h-50q-50 0 -50 -50v-250q0 -300 -150 -300t-150 300v250q0 50 -50 50h-50q-50 0 -50 -50v-350z" />
<glyph unicode="W" horiz-adv-x="1150" d="M0 300v400q0 50 50 50h50q50 0 50 -50v-500q0 -50 50 -50h200q50 0 50 150v400q0 50 50 50h50q50 0 50 -50v-400q0 -150 50 -150h200q50 0 50 150v400q0 50 50 50h50q50 0 50 -50v-400q0 -300 -150 -300h-300q-75 0 -75 50q0 -50 -75 -50h-300q-150 0 -150 300z" />
<glyph unicode="X" d="M0 50q0 -50 50 -50h50q50 0 50 50q0 250 100 250h100q100 0 100 -250q0 -50 50 -50h50q50 0 50 50v100q0 200 -75 225q75 25 75 225v100q0 50 -50 50h-50q-50 0 -50 -50q0 -250 -100 -250h-100q-100 0 -100 250q0 50 -50 50h-50q-50 0 -50 -50v-100q0 -200 75 -224 q-75 -26 -75 -176v-100v-50z" />
<glyph unicode="Y" d="M0 150q0 -150 300 -150h100q50 0 50 -100q0 -50 50 -50h50q50 0 50 50v800q0 50 -50 50h-50q-50 0 -50 -50v-500q0 -50 -50 -50h-100q-150 0 -150 50v500q0 50 -55 50h-45q-50 0 -50 -51v-549z" />
<glyph unicode="Z" d="M0 150v150q0 150 300 150q150 0 150 50v50q0 50 -150 50h-250q-50 0 -50 50v50q0 50 50 50h250q300 0 300 -150v-150q0 -150 -300 -150q-150 0 -150 -50v-50q0 -50 150 -50h250q50 0 50 -50v-50q0 -50 -50 -50h-250q-300 0 -300 150z" />
<glyph unicode="[" horiz-adv-x="400" d="M0 -50v850q0 100 100 100q50 0 50 -50v-950q0 -50 -50 -50q-100 0 -100 100zM100 50h50q0 -50 50 -50h50q50 0 50 -50v-50q0 -50 -50 -50h-150v200zM100 700v200h150q50 0 50 -50v-50q0 -50 -50 -50h-50q-50 0 -50 -50h-50z" />
<glyph unicode="\" horiz-adv-x="599" d="M5 918q-5 12 -5 22q0 29 35 42l47 17q12 5 23 5q29 0 41 -35l376 -1033q5 -12 5 -23q0 -29 -35 -42l-47 -17q-12 -5 -23 -5q-29 0 -41 35z" />
<glyph unicode="]" horiz-adv-x="400" d="M0 -50v-50q0 -50 50 -50h150v200h-50q0 -50 -50 -50h-50q-50 0 -50 -50zM0 800q0 -50 50 -50h50q50 0 50 -50h50v200h-150q-50 0 -50 -50v-50zM150 -100q0 -50 50 -50q100 0 100 100v850q0 100 -100 100q-50 0 -50 -50v-950z" />
<glyph unicode="_" horiz-adv-x="700" d="M0 -50q0 50 50 50h500q50 0 50 -50v-50q0 -50 -50 -50h-500q-50 0 -50 50v50z" />
<glyph unicode="a" d="M0 150v150q0 150 300 150h100q50 0 50 50v50q0 50 -100 50h-300q-50 0 -50 50v50q0 50 50 50h250q300 0 300 -150v-550q0 -50 -50 -50h-250q-300 0 -300 150zM150 200q0 -50 150 -50h100q50 0 50 50v50q0 50 -50 50h-100q-150 0 -150 -50v-50z" />
<glyph unicode="b" d="M0 50q0 -50 50 -50h250q300 0 300 150v450q0 150 -300 150h-250q-50 0 -50 -50v-650zM150 200v50q0 50 50 50h200q50 0 50 -50v-50q0 -50 -150 -50h-100q-50 0 -50 50zM150 500v50q0 50 50 50h100q150 0 150 -50v-50q0 -50 -50 -50h-200q-50 0 -50 50z" />
<glyph unicode="c" d="M0 150v450q0 150 300 150h250q50 0 50 -50v-50q0 -50 -50 -50h-250q-150 0 -150 -50v-350q0 -50 150 -50h250q50 0 50 -50v-50q0 -50 -50 -50h-250q-300 0 -300 150z" />
<glyph unicode="d" d="M0 50q0 -50 50 -50h250q300 0 300 150v450q0 150 -300 150h-250q-50 0 -50 -50v-650zM150 200v345q0 50 50 50h100q150 0 150 -50v-345q0 -50 -150 -50h-100q-50 0 -50 50z" />
<glyph unicode="e" d="M0 150v450q0 150 300 150t300 -150v-250q0 -50 -50 -50h-350q-50 0 -50 -50v-50q0 -50 100 -50h300q50 0 50 -50v-50q0 -50 -50 -50h-250q-300 0 -300 150zM150 500q0 -50 50 -50h200q50 0 50 50v50q0 50 -150 50t-150 -50v-50z" />
<glyph unicode="f" d="M0 50v550q0 150 300 150h250q50 0 50 -50v-50q0 -50 -50 -50h-250q-150 0 -150 -50v-50q0 -50 50 -50h100q50 0 50 -50v-50q0 -50 -50 -50h-100q-50 0 -50 -50v-200q0 -50 -50 -50h-50q-50 0 -50 50z" />
<glyph unicode="g" d="M0 150q0 -150 300 -150t300 150v250q0 50 -50 50h-200q-50 0 -50 -50v-50q0 -50 50 -50h50q50 0 50 -50v-50q0 -50 -150 -50t-150 50v350q0 50 150 50h250q50 0 50 50v50q0 50 -50 50h-250q-300 0 -300 -150v-450z" />
<glyph unicode="h" d="M0 50v650q0 50 50 50h50q50 0 50 -50v-200q0 -50 50 -50h200q50 0 50 50v200q0 50 50 50h50q50 0 50 -50v-650q0 -50 -50 -50h-50q-50 0 -50 50v200q0 50 -50 50h-200q-50 0 -50 -50v-200q0 -50 -50 -50h-50q-50 0 -50 50z" />
<glyph unicode="i" horiz-adv-x="249" d="M0 50v650q0 50 50 50h50q50 0 50 -50v-650q0 -50 -50 -50h-50q-50 0 -50 50z" />
<glyph unicode="j" horiz-adv-x="249" d="M0 -100v800q0 50 50 50h50q50 0 50 -50v-800q0 -50 -50 -50h-50q-50 0 -50 50z" />
<glyph unicode="k" d="M0 50v650q0 50 50 50h50q50 0 50 -50v-200q0 -50 50 -50h200q50 0 50 150v100q0 50 50 50h50q50 0 50 -50v-163q0 -138 -75 -162q75 -25 75 -163v-162q0 -50 -50 -50h-50q-50 0 -50 50v100q0 150 -50 150h-200q-50 0 -50 -50v-200q0 -50 -50 -50h-50q-50 0 -50 50z" />
<glyph unicode="l" horiz-adv-x="549" d="M0 150q0 -150 300 -150h100q50 0 50 50v50q0 50 -50 50h-100q-150 0 -150 50v500q0 50 -50 50h-50q-50 0 -50 -50v-550z" />
<glyph unicode="m" horiz-adv-x="1150" d="M0 50q0 -50 50 -50h50q50 0 50 50v500q0 50 50 50h200q50 0 50 -150v-400q0 -50 50 -50h50q50 0 50 50v400q0 150 50 150h200q50 0 50 -150v-400q0 -50 50 -50h50q50 0 50 50v400q0 300 -150 300h-300q-75 0 -75 -50q0 50 -150 50h-325q-50 0 -50 -50v-650z" />
<glyph unicode="n" d="M0 50v650q0 50 50 50h250q300 0 300 -150v-550q0 -50 -50 -50h-50q-50 0 -50 50v500q0 50 -150 50h-100q-50 0 -50 -50v-500q0 -50 -50 -50h-50q-50 0 -50 50z" />
<glyph unicode="o" d="M0 150q0 -150 300 -150t300 150v450q0 150 -300 150t-300 -150v-450zM150 200v350q0 45 150 50q150 0 150 -50v-350q0 -50 -150 -50t-150 50z" />
<glyph unicode="p" d="M0 -100v800q0 50 50 50h250q300 0 300 -150v-450q0 -150 -300 -150h-100q-50 0 -50 -50v-50q0 -50 -50 -50h-50q-50 0 -50 50zM150 200q0 -50 50 -50h100q150 0 150 50v350q0 50 -150 50h-100q-50 0 -50 -50v-350z" />
<glyph unicode="q" d="M0 150q0 -150 300 -150h100q50 0 50 -50v-50q0 -50 50 -50h50q50 0 50 50v800q0 50 -50 50h-250q-300 0 -300 -150v-450zM150 200v350q0 50 150 50h100q50 0 50 -50v-350q0 -50 -50 -50h-100q-150 0 -150 50z" />
<glyph unicode="r" horiz-adv-x="549" d="M0 50v550q0 150 300 150h105q50 0 50 -50v-50q0 -50 -50 -50h-105q-150 0 -150 -50v-500q0 -50 -50 -50h-50q-50 0 -50 50z" />
<glyph unicode="s" horiz-adv-x="749" d="M0 150q0 -150 300 -150t300 150v150q0 150 -300 150q-150 0 -150 50v50q0 50 150 50t150 -50t50 -50h50q50 0 50 50v50q0 150 -300 150t-300 -150v-150q0 -150 300 -150q150 0 150 -50v-50q0 -50 -150 -50t-150 50t-50 50h-50q-50 0 -50 -50v-50z" />
<glyph unicode="t" horiz-adv-x="849" d="M0 650q0 -50 50 -50h200q50 0 50 -50v-500q0 -50 50 -50h50q50 0 50 50v500q0 50 50 50h200q50 0 50 50v50q0 50 -50 50h-650q-50 0 -50 -50v-50z" />
<glyph unicode="u" d="M0 150q0 -150 300 -150t300 150v550q0 50 -50 50h-50q-50 0 -50 -50v-500q0 -50 -150 -50t-150 50v500q0 50 -50 50h-50q-50 0 -50 -50v-550z" />
<glyph unicode="v" d="M0 350q0 -350 300 -350t300 350v350q0 50 -50 50h-50q-50 0 -50 -50v-250q0 -300 -150 -300t-150 300v250q0 50 -50 50h-50q-50 0 -50 -50v-350z" />
<glyph unicode="w" horiz-adv-x="1150" d="M0 300v400q0 50 50 50h50q50 0 50 -50v-500q0 -50 50 -50h200q50 0 50 150v400q0 50 50 50h50q50 0 50 -50v-400q0 -150 50 -150h200q50 0 50 150v400q0 50 50 50h50q50 0 50 -50v-400q0 -300 -150 -300h-300q-75 0 -75 50q0 -50 -75 -50h-300q-150 0 -150 300z" />
<glyph unicode="x" d="M0 50q0 -50 50 -50h50q50 0 50 50q0 250 100 250h100q100 0 100 -250q0 -50 50 -50h50q50 0 50 50v100q0 200 -75 225q75 25 75 225v100q0 50 -50 50h-50q-50 0 -50 -50q0 -250 -100 -250h-100q-100 0 -100 250q0 50 -50 50h-50q-50 0 -50 -50v-100q0 -200 75 -224 q-75 -26 -75 -176v-100v-50z" />
<glyph unicode="y" d="M0 150q0 -150 300 -150h100q50 0 50 -100q0 -50 50 -50h50q50 0 50 50v800q0 50 -50 50h-50q-50 0 -50 -50v-500q0 -50 -50 -50h-100q-150 0 -150 50v500q0 50 -55 50h-45q-50 0 -50 -51v-549z" />
<glyph unicode="z" d="M0 150v150q0 150 300 150q150 0 150 50v50q0 50 -150 50h-250q-50 0 -50 50v50q0 50 50 50h250q300 0 300 -150v-150q0 -150 -300 -150q-150 0 -150 -50v-50q0 -50 150 -50h250q50 0 50 -50v-50q0 -50 -50 -50h-250q-300 0 -300 150z" />
<glyph unicode="|" horiz-adv-x="650" d="M200 -100v950q0 50 50 50h50q50 0 50 -50v-950q0 -50 -50 -50h-50q-50 0 -50 50z" />
<glyph unicode="&#xa9;" horiz-adv-x="1349" d="M-100 200v350q0 450 575 450t575 -450v-350q0 -450 -575 -450t-575 450zM50 200q0 -300 425 -300t425 300v350q0 300 -425 300t-425 -300v-350zM150 150v450q0 150 300 150h250q50 0 50 -50v-50q0 -50 -50 -50h-250q-150 0 -150 -50v-350q0 -50 150 -50h250q50 0 50 -50 v-50q0 -50 -50 -50h-250q-300 0 -300 150z" />
<glyph unicode="&#xaa;" d="M0 150v150q0 150 300 150h100q50 0 50 50v50q0 50 -100 50h-300q-50 0 -50 50v50q0 50 50 50h250q300 0 300 -150v-550q0 -50 -50 -50h-250q-300 0 -300 150zM150 200q0 -50 150 -50h100q50 0 50 50v50q0 50 -50 50h-100q-150 0 -150 -50v-50z" />
<glyph unicode="&#xab;" horiz-adv-x="900" d="M17 338q-18 18 -18 36q0 16 18 34l353 354q18 18 35.5 18t35.5 -18l35 -35q18 -18 18 -35.5t-18 -35.5l-353 -354q-18 -18 -36 -17l-35 17zM18 338q-18 18 -17.5 35.5t17.5 35.5l36 35q18 18 35.5 18t34.5 -18l354 -354q18 -18 18 -35t-18 -35l-35 -36q-18 -18 -35 -18 q-18 0 -36 18zM318 338q-18 18 -18 36q0 16 18 34l354 354q18 18 35 18t35 -18l36 -35q18 -18 18 -35q0 -18 -18 -36l-354 -354q-18 -18 -36 -17l-35 17zM320 338q-18 18 -18 35.5t18 35.5l35 35q18 18 35.5 18t35.5 -18l353 -354q18 -18 18 -35t-18 -35l-35 -36 q-18 -18 -36 -18q-17 0 -35 18z" />
<glyph unicode="&#xad;" horiz-adv-x="700" d="M0 350v50q0 50 50 50h500q50 0 50 -50v-50q0 -50 -50 -50h-500q-50 0 -50 50z" />
<glyph unicode="&#xae;" horiz-adv-x="1349" d="M-125 200v350q0 450 575 450t575 -450v-350q0 -450 -575 -450t-575 450zM25 200q0 -300 425 -300t425 300v350q0 300 -425 300t-425 -300v-350zM150 50v650q0 50 50 50h250q300 0 300 -250q0 -125 -50 -150q50 0 50 -300q0 -50 -50 -50h-50q-50 0 -50 50q0 250 -100 250 h-150q-50 0 -50 -50v-200q0 -50 -50 -50h-50q-50 0 -50 50zM300 500q0 -50 50 -50h200q50 0 50 50q0 100 -150 100h-100q-50 0 -50 -50v-50z" />
<glyph unicode="&#xb2;" horiz-adv-x="700" d="M0 100v120q0 105 225 267.5t225 212.5q0 90 -150 100h-250q-50 0 -50 50v50q0 50 50 50h250q300 0 300 -250v-25q0 -100 -225 -262.5t-225 -212.5t50 -50h350q50 0 50 -50v-50q0 -50 -50 -50h-450q-100 0 -100 100z" />
<glyph unicode="&#xb3;" horiz-adv-x="700" d="M0 50q0 -50 50 -50h250q300 0 300 150v650q0 150 -300 150h-250q-50 0 -50 -50v-50q0 -50 50 -50h250q150 0 150 -50v-150q0 -50 -50 -50h-100q-50 0 -50 -50v-50q0 -50 50 -50h100q50 0 50 -50v-150q0 -50 -150 -50h-250q-50 0 -50 -50v-50z" />
<glyph unicode="&#xb7;" horiz-adv-x="1536" d="M256 0v1280h1024v-1280h-1024zM289 33h958v1214h-958v-1214z" />
<glyph unicode="&#xb9;" horiz-adv-x="400" d="M0 850q0 100 200 100h50q50 0 50 -50v-50q0 -50 -150 -100q0 50 -50 50h-76q-24 0 -24 50zM150 50v850q0 50 50 50h50q50 0 50 -50v-850q0 -50 -50 -50h-50q-50 0 -50 50z" />
<glyph unicode="&#xba;" d="M0 150q0 -150 300 -150t300 150v450q0 150 -300 150t-300 -150v-450zM150 200v350q0 45 150 50q150 0 150 -50v-350q0 -50 -150 -50t-150 50z" />
<glyph unicode="&#xbb;" horiz-adv-x="900" d="M17 20l35 -36q18 -18 36 -18q17 0 35 18l353 354q18 18 18 35.5t-18 35.5l-35 35q-18 18 -35.5 18t-35.5 -18l-353 -354q-18 -18 -18 -35t18 -35zM18 727q-18 -18 -18 -35q0 -18 18 -36l354 -354q18 -18 36 -17l35 17l35 36q18 18 18 36q0 16 -18 34l-354 354 q-18 18 -35 18t-35 -18zM318 20l35 -36q18 -18 35 -18q18 0 36 18l354 354q18 18 17.5 35.5t-17.5 35.5l-36 35q-18 18 -35.5 18t-34.5 -18l-354 -354q-18 -18 -18 -35t18 -35zM320 727q-18 -18 -18 -35.5t18 -35.5l353 -354q18 -18 36 -17l35 17l35 36q18 18 18 36 q0 16 -18 34l-353 354q-18 18 -35.5 18t-35.5 -18z" />
<glyph unicode="&#xc5;" horiz-adv-x="700" d="M0 50v400q0 300 150 300h300q150 0 150 -300v-400q0 -50 -50 -50h-50q-50 0 -50 50v200q0 50 -50 50h-200q-50 0 -50 -50v-200q0 -50 -50 -50h-50q-50 0 -50 50zM150 450h300q0 150 -50 150h-200q-50 0 -50 -150zM225 850q0 -50 50 -50h50q50 0 50 50v50q0 50 -50 50h-50 q-50 0 -50 -50v-50z" />
<glyph unicode="&#xc6;" horiz-adv-x="1150" d="M0 50v400q0 300 150 300h300q150 0 150 -300v-400q0 -50 -50 -50h-50q-50 0 -50 50v200q0 50 -50 50h-200q-50 0 -50 -50v-200q0 -50 -50 -50h-50q-50 0 -50 50zM150 450h300q0 150 -50 150h-200q-50 0 -50 -150zM450 50v700h300h250q50 0 50 -50v-50q0 -50 -50 -50h-250 q-150 0 -150 -50v-50q0 -50 50 -50h100q50 0 50 -50v-50q0 -50 -50 -50h-100q-50 0 -50 -50v-50q0 -50 150 -50h250q50 0 50 -50v-50q0 -50 -50 -50h-500q-50 0 -50 50z" />
<glyph unicode="&#xd8;" d="M0 150q0 -150 300 -150t300 150v450q0 150 -300 150t-300 -150v-450zM62 144q-11 -17 -11 -31q-1 -22 25 -38l42 -27q16 -11 31 -11q23 0 39 25l355 544q11 17 11 31q0 23 -26 39l-42 27q-16 11 -30 11q-22 0 -39 -26zM150 200v345q0 50 150 55q150 0 150 -50v-350 q0 -50 -150 -50t-150 50z" />
<glyph unicode="&#xe5;" horiz-adv-x="700" d="M0 150v150q0 150 300 150h100q50 0 50 50v50q0 50 -100 50h-300q-50 0 -50 50v50q0 50 50 50h250q300 0 300 -150v-550q0 -50 -50 -50h-250q-300 0 -300 150zM150 200q0 -50 150 -50h100q50 0 50 50v50q0 50 -50 50h-100q-150 0 -150 -50v-50zM250 900q0 -50 50 -50h50 q50 0 50 50v50q0 50 -50 50h-50q-50 0 -50 -50v-50z" />
<glyph unicode="&#xe6;" horiz-adv-x="1150" d="M0 150v150q0 150 300 150h100q50 0 50 50v50q0 50 -100 50h-300q-50 0 -50 50v50q0 50 50 50h250q225 0 225 -50v-700h-225q-300 0 -300 150zM150 200q0 -50 150 -50h100q50 0 50 50v50q0 50 -50 50h-100q-150 0 -150 -50v-50zM525 0v700q0 50 225 50q300 0 300 -150 v-250q0 -50 -50 -50h-350q-50 0 -50 -50v-50q0 -50 100 -50h300q50 0 50 -50v-50q0 -50 -50 -50h-475zM600 500q0 -50 50 -50h200q50 0 50 50v50q0 50 -150 50t-150 -50v-50z" />
<glyph unicode="&#xf7;" horiz-adv-x="700" d="M0 350v50q0 50 50 50h500q50 0 50 -50v-50q0 -50 -50 -50h-500q-50 0 -50 50zM225 150q0 -50 50 -50h50q50 0 50 50v50q0 50 -50 50h-50q-50 0 -50 -50v-50zM225 550q0 -50 50 -50h50q50 0 50 50v50q0 50 -50 50h-50q-50 0 -50 -50v-50z" />
<glyph unicode="&#xf8;" d="M0 150q0 -150 300 -150t300 150v450q0 150 -300 150t-300 -150v-450zM62 144q-11 -17 -11 -31q-1 -22 25 -38l42 -27q16 -11 31 -11q23 0 39 25l355 544q11 17 11 31q0 23 -26 39l-42 27q-16 11 -30 11q-22 0 -39 -26zM150 200v345q0 50 150 55q150 0 150 -50v-350 q0 -50 -150 -50t-150 50z" />
<glyph unicode="&#x152;" horiz-adv-x="1399" d="M0 150q0 -150 300 -150t300 150v450q0 150 -300 150t-300 -150v-450zM150 200v350q0 45 150 50q150 0 150 -50v-350q0 -50 -150 -50t-150 50zM700 150v450q0 150 300 150h250q50 0 50 -50v-50q0 -50 -50 -50h-250q-150 0 -150 -50v-50q0 -50 50 -50h100q50 0 50 -50v-50 q0 -50 -50 -50h-100q-50 0 -50 -50v-50q0 -50 150 -50h250q50 0 50 -50v-50q0 -50 -50 -50h-250q-300 0 -300 150z" />
<glyph unicode="&#x153;" horiz-adv-x="1292" d="M62 194v521q0 88 51.5 137t140.5 49h260q64 0 92.5 -22.5t34.5 -36.5q10 15 41.5 37t87.5 22h260q91 0 146 -51q55 -52 55 -142v-310h-485v-234h288v129h197v-103q0 -118 -63 -157t-138 -39h-266q-54 0 -84 21.5t-39 35.5q-10 -14 -41 -35.5t-86 -21.5h-252 q-90 0 -145 54t-55 146zM272 164h273v567h-273v-567zM746 545h288v201h-288v-201z" />
<glyph unicode="&#x2013;" horiz-adv-x="1024" d="M0 300v150h924v-150h-924z" />
<glyph unicode="&#x2014;" horiz-adv-x="900" d="M0 350v50q0 50 50 50h700q50 0 50 -50v-50q0 -50 -50 -50h-700q-50 0 -50 50z" />
<glyph unicode="&#x2018;" horiz-adv-x="249" d="M0 800v50q0 50 50 50h50q50 0 50 -50v-225q0 -25 -50 -25q-100 0 -100 200z" />
<glyph unicode="&#x2019;" horiz-adv-x="249" d="M0 625q0 -25 50 -25q100 0 100 200v50q0 50 -50 50h-50q-50 0 -50 -50v-225z" />
<glyph unicode="&#x201c;" horiz-adv-x="450" d="M0 625q0 -25 50 -25q100 0 100 200v50q0 50 -50 50h-50q-50 0 -50 -50v-225zM200 625q0 -25 50 -25q100 0 100 200v50q0 50 -50 50h-50q-50 0 -50 -50v-225z" />
<glyph unicode="&#x201d;" horiz-adv-x="450" d="M0 625q0 -25 50 -25q100 0 100 200v50q0 50 -50 50h-50q-50 0 -50 -50v-225zM200 625q0 -25 50 -25q100 0 100 200v50q0 50 -50 50h-50q-50 0 -50 -50v-225z" />
<glyph unicode="&#x201e;" horiz-adv-x="450" d="M0 -50v-50q0 -50 50 -50h50q50 0 50 50v225q0 25 -50 25q-100 0 -100 -200zM200 -50v-50q0 -50 50 -50h50q50 0 50 50v225q0 25 -50 25q-100 0 -100 -200z" />
<glyph unicode="&#x2026;" horiz-adv-x="748" d="M0 50q0 -50 50 -50h50q50 0 50 50v50q0 50 -50 50h-50q-50 0 -50 -50v-50zM250 50q0 -50 50 -50h50q50 0 50 50v50q0 50 -50 50h-50q-50 0 -50 -50v-50zM499 50q0 -50 50 -50h50q50 0 50 50v50q0 50 -50 50h-50q-50 0 -50 -50v-50z" />
<glyph unicode="&#x2039;" horiz-adv-x="600" d="M18 338q-18 18 -18 36q0 16 18 34l354 354q18 18 35 18t35 -18l36 -35q18 -18 18 -35q0 -18 -18 -36l-354 -354q-18 -18 -36 -17l-35 17zM20 338q-18 18 -18 35.5t18 35.5l35 35q18 18 35.5 18t35.5 -18l353 -354q18 -18 18 -35t-18 -35l-35 -36q-18 -18 -36 -18 q-17 0 -35 18z" />
<glyph unicode="&#x203a;" horiz-adv-x="600" d="M17 20l35 -36q18 -18 36 -18q17 0 35 18l353 354q18 18 18 35.5t-18 35.5l-35 35q-18 18 -35.5 18t-35.5 -18l-353 -354q-18 -18 -18 -35t18 -35zM18 727q-18 -18 -18 -35q0 -18 18 -36l354 -354q18 -18 36 -17l35 17l35 36q18 18 18 36q0 16 -18 34l-354 354 q-18 18 -35 18t-35 -18z" />
<glyph unicode="&#x2122;" horiz-adv-x="1025" d="M0 700q0 -25 25 -25h100q25 0 25 -25v-250q0 -25 25 -25h25q25 0 25 25v250q0 25 25 25h100q25 0 25 25v25q0 25 -25 25h-325q-25 0 -25 -25v-25zM400 400q0 -25 25 -25h25q25 0 25 25v250q0 25 25 25h100q25 0 25 -75v-200q0 -25 25 -25h25q25 0 25 25v200q0 75 25 75 h100q25 0 25 -75v-200q0 -25 25 -25h25q25 0 25 25v200q0 150 -75 150h-150q-38 0 -38 -25q0 25 -74 25h-163q-25 0 -25 -25v-325z" />
<glyph unicode="&#xe000;" horiz-adv-x="750" d="M0 750h750v-750h-750v750z" />
<glyph unicode="&#xfb01;" horiz-adv-x="949" d="M0 50v550q0 150 300 150h250q50 0 50 -50v-50q0 -50 -50 -50h-250q-150 0 -150 -50v-50q0 -50 50 -50h100q50 0 50 -50v-50q0 -50 -50 -50h-100q-50 0 -50 -50v-200q0 -50 -50 -50h-50q-50 0 -50 50zM700 50v650q0 50 50 50h50q50 0 50 -50v-650q0 -50 -50 -50h-50 q-50 0 -50 50z" />
<glyph unicode="&#xfb02;" horiz-adv-x="1249" d="M0 50v550q0 150 300 150h250q50 0 50 -50v-50q0 -50 -50 -50h-250q-150 0 -150 -50v-50q0 -50 50 -50h100q50 0 50 -50v-50q0 -50 -50 -50h-100q-50 0 -50 -50v-200q0 -50 -50 -50h-50q-50 0 -50 50zM700 150q0 -150 300 -150h100q50 0 50 50v50q0 50 -50 50h-100 q-150 0 -150 50v500q0 50 -50 50h-50q-50 0 -50 -50v-550z" />
<glyph unicode="&#xfb03;" horiz-adv-x="1648" d="M0 50v550q0 150 300 150h250q50 0 50 -50v-50q0 -50 -50 -50h-250q-150 0 -150 -50v-50q0 -50 50 -50h100q50 0 50 -50v-50q0 -50 -50 -50h-100q-50 0 -50 -50v-200q0 -50 -50 -50h-50q-50 0 -50 50zM700 50v550q0 150 300 150h250q50 0 50 -50v-50q0 -50 -50 -50h-250 q-150 0 -150 -50v-50q0 -50 50 -50h100q50 0 50 -50v-50q0 -50 -50 -50h-100q-50 0 -50 -50v-200q0 -50 -50 -50h-50q-50 0 -50 50zM1399 50v650q0 50 50 50h50q50 0 50 -50v-650q0 -50 -50 -50h-50q-50 0 -50 50z" />
<glyph unicode="&#xfb04;" horiz-adv-x="1948" d="M0 50v550q0 150 300 150h250q50 0 50 -50v-50q0 -50 -50 -50h-250q-150 0 -150 -50v-50q0 -50 50 -50h100q50 0 50 -50v-50q0 -50 -50 -50h-100q-50 0 -50 -50v-200q0 -50 -50 -50h-50q-50 0 -50 50zM700 50v550q0 150 300 150h250q50 0 50 -50v-50q0 -50 -50 -50h-250 q-150 0 -150 -50v-50q0 -50 50 -50h100q50 0 50 -50v-50q0 -50 -50 -50h-100q-50 0 -50 -50v-200q0 -50 -50 -50h-50q-50 0 -50 50zM1399 150q0 -150 300 -150h100q50 0 50 50v50q0 50 -50 50h-100q-150 0 -150 50v500q0 50 -50 50h-50q-50 0 -50 -50v-550z" />
</font>
</defs>
</svg>
